<?xml version="1.0" standalone="no"?>
<!DOCTYPE svg PUBLIC "-//W3C//DTD SVG 20010904//EN"
 "http://www.w3.org/TR/2001/REC-SVG-20010904/DTD/svg10.dtd">
<svg version="1.0" xmlns="http://www.w3.org/2000/svg"
 width="100" height="100" viewBox="0 0 1000.000000 1000.000000"
 preserveAspectRatio="xMidYMid meet">

<g transform="translate(0.000000,1000.000000) scale(0.100000,-0.100000)"
fill="#000000" stroke="none">
<path d="M5115 7323 c-104 -85 -190 -159 -190 -163 0 -8 -1 -7 830 -685 303
-247 685 -559 850 -694 165 -134 319 -260 343 -279 l42 -34 0 324 0 324 -92
75 c-51 41 -280 228 -508 414 -228 187 -563 460 -743 607 -180 147 -331 268
-335 268 -4 -1 -92 -71 -197 -157z"/>
<path d="M3709 6832 l-634 -517 0 -220 0 -219 825 -674 c454 -370 1015 -828
1247 -1018 l423 -345 125 103 125 102 0 121 0 121 -247 201 c-914 743 -1957
1600 -1959 1608 -2 9 711 596 727 599 3 1 334 -267 734 -594 401 -327 732
-596 737 -598 4 -2 8 142 8 320 l-1 323 -435 355 c-240 195 -538 438 -663 540
-125 102 -261 213 -303 247 l-76 62 -633 -517z"/>
<path d="M4303 6257 l-123 -102 0 -120 0 -120 987 -805 c542 -443 1039 -848
1104 -900 65 -52 118 -99 118 -105 0 -9 -717 -598 -730 -599 -4 -1 -332 265
-730 590 -398 324 -730 593 -736 598 -10 6 -13 -60 -12 -316 l0 -323 651 -530
c357 -291 689 -562 738 -602 l87 -72 634 518 634 517 3 216 2 217 -462 377
c-255 208 -645 527 -868 709 -1027 839 -1169 955 -1172 954 -2 0 -58 -46 -125
-102z"/>
<path d="M3010 4409 l0 -324 253 -207 c138 -113 514 -420 835 -682 321 -262
586 -476 588 -476 10 0 389 312 389 320 0 6 -678 563 -1735 1423 -162 132
-303 247 -312 255 -17 14 -18 -1 -18 -309z"/>
</g>
</svg>
